<svg id="Layer_1" data-name="Layer 1" xmlns="http://www.w3.org/2000/svg" viewBox="0 0 509.65 512.16"><defs><style>.cls-1{fill:#fff;}</style></defs><title>logowhite</title><path class="cls-1" d="M676.56,629v2.88c-.22,1.41-.38,2.82-.66,4.22-1.59,7.82-2.83,15.74-4.87,23.45q-25.56,96.57-109,151.56c-37.82,24.84-79.61,38.15-124.82,40.7a14.93,14.93,0,0,0-2.06.39h-24c-.78-.13-1.55-.32-2.33-.39-5.49-.49-11-.85-16.48-1.46A240.55,240.55,0,0,1,343,839.44,254.55,254.55,0,0,1,238.47,773.7,250.75,250.75,0,0,1,193.58,710a253.81,253.81,0,0,1-26.41-125.55,247.93,247.93,0,0,1,5.06-40.65c11-51.5,35.21-95.82,73.27-132.21,45.9-43.89,100.84-67.48,164.27-71.23a20.72,20.72,0,0,0,2.31-.41h21.6a22.52,22.52,0,0,0,2.57.41,256.35,256.35,0,0,1,28.6,3.07A253.23,253.23,0,0,1,540.1,368.4a257.16,257.16,0,0,1,83.09,68.07,3.86,3.86,0,0,1,.8,3.94c-1.32,4.36-2.43,8.78-3.84,13.11-23.81,72.75-85.77,126.38-159.65,140-.94.17-1.89.32-2.83.51s-1.69.37-2.54.55q114.82-6.9,215.5-62.51c1,1.43.62,2.71.25,4a257.7,257.7,0,0,1-179.1,180,281.86,281.86,0,0,1-38.5,7.73,3.29,3.29,0,0,0,1.16.11c1.19-.1,2.38-.24,3.57-.33a346.3,346.3,0,0,0,43.14-6.43,381.61,381.61,0,0,0,140.37-60.63A361.34,361.34,0,0,0,676.56,629Z" transform="translate(-166.91 -339.99)"/></svg>